# xmcd CD database file
#
# Track frame offsets:
#	150
#	16348
#	28617
#	45303
#	60284
#	73215
#	85543
#	103463
#	116473
#	133095
#	151132
#	163281
#	176285
#	189061
#	198825
#	207561
#	222290
#	232525
#	245760
#	254969
#	267393
#	276189
#	284227
#	300410
#	307363
#	323451
#	336869
#	349616
#
# Disc length: 4697 seconds
#
# Revision: 8
# Processed by: cddbd v1.5.2PL0 Copyright (c) Steve Scherf et al.
# Submitted via: CDex 1.70beta2
#
DISCID=9c12571c
DTITLE=Michal Tucny - No. 55
DYEAR=2002
DGENRE=Country
TTITLE0=Poveste ho vejs
TTITLE1=Snidane v trave
TTITLE2=Mam paru
TTITLE3=Tam u nebeskych bran
TTITLE4=Chtel bych byt medvidkem
TTITLE5=Michaluv song
TTITLE6=Lojza a Liza
TTITLE7=Prodavac
TTITLE8=Bud nad veci
TTITLE9=Cerny Bill a Bila Nelly
TTITLE10=Vcera jsem te nevidel
TTITLE11=Byt hlidacem ruzi
TTITLE12=20. stoleti ma na kahanku
TTITLE13=Diggy liggy
TTITLE14=Fidlej celej den
TTITLE15=Jak to doopravdy bylo s Babinskym
TTITLE16=Ja tajne cvicim 
TTITLE17=Cervena reka
TTITLE18=Drnova chajda
TTITLE19=Tak uz nefnukej
TTITLE20=Jen tohle chci ti rict
TTITLE21=Rovnou, tady rovnou
TTITLE22=Modra z dzin
TTITLE23=Lodni zvon zvoni
TTITLE24=Karolina
TTITLE25=Spim v obili
TTITLE26=Pane muj
TTITLE27=Posledni kovboj
EXTD=YEAR: 2002
EXTT0=
EXTT1=
EXTT2=
EXTT3=
EXTT4=
EXTT5=
EXTT6=
EXTT7=
EXTT8=
EXTT9=
EXTT10=
EXTT11=
EXTT12=
EXTT13=
EXTT14=
EXTT15=
EXTT16=
EXTT17=
EXTT18=
EXTT19=
EXTT20=
EXTT21=
EXTT22=
EXTT23=
EXTT24=
EXTT25=
EXTT26=
EXTT27=
PLAYORDER=
